<svg width="123" height="24" viewBox="0 0 123 24" fill="none" xmlns="http://www.w3.org/2000/svg">
<path d="M122.5 23.5H0.5L19 0.5H122.5V23.5Z" fill="#64A94C"/>
<path d="M55.7727 8.27273C55.7045 7.69697 55.428 7.25 54.9432 6.93182C54.4583 6.61364 53.8636 6.45455 53.1591 6.45455C52.6439 6.45455 52.1932 6.53788 51.8068 6.70455C51.4242 6.87121 51.125 7.10038 50.9091 7.39205C50.697 7.68371 50.5909 8.01515 50.5909 8.38636C50.5909 8.69697 50.6648 8.96401 50.8125 9.1875C50.964 9.4072 51.1572 9.59091 51.392 9.73864C51.6269 9.88258 51.8731 10.0019 52.1307 10.0966C52.3883 10.1875 52.625 10.2614 52.8409 10.3182L54.0227 10.6364C54.3258 10.7159 54.6629 10.8258 55.0341 10.9659C55.4091 11.1061 55.767 11.2973 56.108 11.5398C56.4527 11.7784 56.7367 12.0852 56.9602 12.4602C57.1837 12.8352 57.2955 13.2955 57.2955 13.8409C57.2955 14.4697 57.1307 15.0379 56.8011 15.5455C56.4754 16.053 55.9981 16.4564 55.3693 16.7557C54.7443 17.0549 53.9848 17.2045 53.0909 17.2045C52.2576 17.2045 51.536 17.0701 50.9261 16.8011C50.3201 16.5322 49.8428 16.1572 49.4943 15.6761C49.1496 15.1951 48.9545 14.6364 48.9091 14H50.3636C50.4015 14.4394 50.5492 14.803 50.8068 15.0909C51.0682 15.375 51.3977 15.5871 51.7955 15.7273C52.197 15.8636 52.6288 15.9318 53.0909 15.9318C53.6288 15.9318 54.1117 15.8447 54.5398 15.6705C54.9678 15.4924 55.3068 15.2462 55.5568 14.9318C55.8068 14.6136 55.9318 14.2424 55.9318 13.8182C55.9318 13.4318 55.8239 13.1174 55.608 12.875C55.392 12.6326 55.108 12.4356 54.7557 12.2841C54.4034 12.1326 54.0227 12 53.6136 11.8864L52.1818 11.4773C51.2727 11.2159 50.553 10.8428 50.0227 10.358C49.4924 9.87311 49.2273 9.23864 49.2273 8.45455C49.2273 7.80303 49.4034 7.23485 49.7557 6.75C50.1117 6.26136 50.589 5.88258 51.1875 5.61364C51.7898 5.34091 52.4621 5.20455 53.2045 5.20455C53.9545 5.20455 54.6212 5.33901 55.2045 5.60795C55.7879 5.87311 56.25 6.23674 56.5909 6.69886C56.9356 7.16098 57.1174 7.68561 57.1364 8.27273H55.7727ZM63.0895 17.1818C62.2486 17.1818 61.5232 16.9962 60.9134 16.625C60.3073 16.25 59.8395 15.7273 59.5099 15.0568C59.1842 14.3826 59.0213 13.5985 59.0213 12.7045C59.0213 11.8106 59.1842 11.0227 59.5099 10.3409C59.8395 9.6553 60.2978 9.12121 60.8849 8.73864C61.4759 8.35227 62.1652 8.15909 62.9531 8.15909C63.4077 8.15909 63.8565 8.23485 64.2997 8.38636C64.7429 8.53788 65.1463 8.78409 65.5099 9.125C65.8736 9.46212 66.1634 9.90909 66.3793 10.4659C66.5952 11.0227 66.7031 11.7083 66.7031 12.5227V13.0909H59.9759V11.9318H65.3395C65.3395 11.4394 65.241 11 65.044 10.6136C64.8509 10.2273 64.5743 9.92235 64.2145 9.69886C63.8584 9.47538 63.438 9.36364 62.9531 9.36364C62.419 9.36364 61.9569 9.49621 61.5668 9.76136C61.1804 10.0227 60.883 10.3636 60.6747 10.7841C60.4664 11.2045 60.3622 11.6553 60.3622 12.1364V12.9091C60.3622 13.5682 60.4759 14.1269 60.7031 14.5852C60.9342 15.0398 61.2543 15.3864 61.6634 15.625C62.0724 15.8598 62.5478 15.9773 63.0895 15.9773C63.4418 15.9773 63.7599 15.928 64.044 15.8295C64.3319 15.7273 64.58 15.5758 64.7884 15.375C64.9967 15.1705 65.1577 14.9167 65.2713 14.6136L66.5668 14.9773C66.4304 15.4167 66.2012 15.803 65.8793 16.1364C65.5573 16.4659 65.1596 16.7235 64.6861 16.9091C64.2126 17.0909 63.6804 17.1818 63.0895 17.1818ZM68.7429 17V8.27273H70.0384V9.59091H70.1293C70.2884 9.15909 70.5762 8.80871 70.9929 8.53977C71.4096 8.27083 71.8793 8.13636 72.402 8.13636C72.5005 8.13636 72.6236 8.13826 72.7713 8.14205C72.919 8.14583 73.0308 8.15152 73.1065 8.15909V9.52273C73.0611 9.51136 72.9569 9.49432 72.794 9.47159C72.6349 9.44508 72.4664 9.43182 72.2884 9.43182C71.8641 9.43182 71.4853 9.52083 71.152 9.69886C70.8224 9.87311 70.5611 10.1155 70.3679 10.4261C70.1785 10.733 70.0838 11.0833 70.0838 11.4773V17H68.7429ZM74.696 17V8.27273H76.0369V17H74.696ZM75.3778 6.81818C75.1165 6.81818 74.8911 6.72917 74.7017 6.55114C74.5161 6.37311 74.4233 6.15909 74.4233 5.90909C74.4233 5.65909 74.5161 5.44508 74.7017 5.26705C74.8911 5.08902 75.1165 5 75.3778 5C75.6392 5 75.8627 5.08902 76.0483 5.26705C76.2377 5.44508 76.3324 5.65909 76.3324 5.90909C76.3324 6.15909 76.2377 6.37311 76.0483 6.55114C75.8627 6.72917 75.6392 6.81818 75.3778 6.81818ZM82.152 17.1818C81.3111 17.1818 80.5857 16.9962 79.9759 16.625C79.3698 16.25 78.902 15.7273 78.5724 15.0568C78.2467 14.3826 78.0838 13.5985 78.0838 12.7045C78.0838 11.8106 78.2467 11.0227 78.5724 10.3409C78.902 9.6553 79.3603 9.12121 79.9474 8.73864C80.5384 8.35227 81.2277 8.15909 82.0156 8.15909C82.4702 8.15909 82.919 8.23485 83.3622 8.38636C83.8054 8.53788 84.2088 8.78409 84.5724 9.125C84.9361 9.46212 85.2259 9.90909 85.4418 10.4659C85.6577 11.0227 85.7656 11.7083 85.7656 12.5227V13.0909H79.0384V11.9318H84.402C84.402 11.4394 84.3035 11 84.1065 10.6136C83.9134 10.2273 83.6368 9.92235 83.277 9.69886C82.9209 9.47538 82.5005 9.36364 82.0156 9.36364C81.4815 9.36364 81.0194 9.49621 80.6293 9.76136C80.2429 10.0227 79.9455 10.3636 79.7372 10.7841C79.5289 11.2045 79.4247 11.6553 79.4247 12.1364V12.9091C79.4247 13.5682 79.5384 14.1269 79.7656 14.5852C79.9967 15.0398 80.3168 15.3864 80.7259 15.625C81.1349 15.8598 81.6103 15.9773 82.152 15.9773C82.5043 15.9773 82.8224 15.928 83.1065 15.8295C83.3944 15.7273 83.6425 15.5758 83.8509 15.375C84.0592 15.1705 84.2202 14.9167 84.3338 14.6136L85.6293 14.9773C85.4929 15.4167 85.2637 15.803 84.9418 16.1364C84.6198 16.4659 84.2221 16.7235 83.7486 16.9091C83.2751 17.0909 82.7429 17.1818 82.152 17.1818Z" fill="#D6D6D6"/>
</svg>
