<svg width="123" height="24" viewBox="0 0 123 24" fill="none" xmlns="http://www.w3.org/2000/svg">
<path d="M122.5 23.5H0.5L19 0.5H122.5V23.5Z" fill="#5E9595"/>
<path d="M35.6364 13.3636H37.1818L38.4773 15.0682L38.8182 15.5227L40.75 18.0909H39.2045L37.9318 16.3864L37.6136 15.9545L35.6364 13.3636ZM41.2273 11.1818C41.2273 12.4091 41.0057 13.4697 40.5625 14.3636C40.1193 15.2576 39.5114 15.947 38.7386 16.4318C37.9659 16.9167 37.0833 17.1591 36.0909 17.1591C35.0985 17.1591 34.2159 16.9167 33.4432 16.4318C32.6705 15.947 32.0625 15.2576 31.6193 14.3636C31.1761 13.4697 30.9545 12.4091 30.9545 11.1818C30.9545 9.95455 31.1761 8.89394 31.6193 8C32.0625 7.10606 32.6705 6.41667 33.4432 5.93182C34.2159 5.44697 35.0985 5.20455 36.0909 5.20455C37.0833 5.20455 37.9659 5.44697 38.7386 5.93182C39.5114 6.41667 40.1193 7.10606 40.5625 8C41.0057 8.89394 41.2273 9.95455 41.2273 11.1818ZM39.8636 11.1818C39.8636 10.1742 39.6951 9.32386 39.358 8.63068C39.0246 7.9375 38.572 7.41288 38 7.05682C37.4318 6.70076 36.7955 6.52273 36.0909 6.52273C35.3864 6.52273 34.7481 6.70076 34.1761 7.05682C33.608 7.41288 33.1553 7.9375 32.8182 8.63068C32.4848 9.32386 32.3182 10.1742 32.3182 11.1818C32.3182 12.1894 32.4848 13.0398 32.8182 13.733C33.1553 14.4261 33.608 14.9508 34.1761 15.3068C34.7481 15.6629 35.3864 15.8409 36.0909 15.8409C36.7955 15.8409 37.4318 15.6629 38 15.3068C38.572 14.9508 39.0246 14.4261 39.358 13.733C39.6951 13.0398 39.8636 12.1894 39.8636 11.1818ZM48.9148 13.4318V8.27273H50.2557V17H48.9148V15.5227H48.8239C48.6193 15.9659 48.3011 16.3428 47.8693 16.6534C47.4375 16.9602 46.892 17.1136 46.233 17.1136C45.6875 17.1136 45.2027 16.9943 44.7784 16.7557C44.3542 16.5133 44.0208 16.1496 43.7784 15.6648C43.536 15.1761 43.4148 14.5606 43.4148 13.8182V8.27273H44.7557V13.7273C44.7557 14.3636 44.9337 14.8712 45.2898 15.25C45.6496 15.6288 46.108 15.8182 46.6648 15.8182C46.9981 15.8182 47.3371 15.733 47.6818 15.5625C48.0303 15.392 48.322 15.1307 48.5568 14.7784C48.7955 14.4261 48.9148 13.9773 48.9148 13.4318ZM55.2798 17.2045C54.7268 17.2045 54.2249 17.1004 53.7741 16.892C53.3234 16.6799 52.9654 16.375 52.7003 15.9773C52.4351 15.5758 52.3026 15.0909 52.3026 14.5227C52.3026 14.0227 52.401 13.6174 52.598 13.3068C52.795 12.9924 53.0582 12.7462 53.3878 12.5682C53.7173 12.3902 54.081 12.2576 54.4787 12.1705C54.8802 12.0795 55.2836 12.0076 55.6889 11.9545C56.2192 11.8864 56.6491 11.8352 56.9787 11.8011C57.312 11.7633 57.5545 11.7008 57.706 11.6136C57.8613 11.5265 57.9389 11.375 57.9389 11.1591V11.1136C57.9389 10.553 57.7855 10.1174 57.4787 9.80682C57.1757 9.49621 56.7154 9.34091 56.098 9.34091C55.4579 9.34091 54.956 9.48106 54.5923 9.76136C54.2287 10.0417 53.973 10.3409 53.8253 10.6591L52.5526 10.2045C52.7798 9.67424 53.0829 9.26136 53.4616 8.96591C53.8442 8.66667 54.2609 8.45833 54.7116 8.34091C55.1662 8.2197 55.6132 8.15909 56.0526 8.15909C56.3329 8.15909 56.6548 8.19318 57.0185 8.26136C57.3859 8.32576 57.7401 8.46023 58.081 8.66477C58.4257 8.86932 58.7116 9.17803 58.9389 9.59091C59.1662 10.0038 59.2798 10.5568 59.2798 11.25V17H57.9389V15.8182H57.8707C57.7798 16.0076 57.6283 16.2102 57.4162 16.4261C57.2041 16.642 56.9219 16.8258 56.5696 16.9773C56.2173 17.1288 55.7874 17.2045 55.2798 17.2045ZM55.4844 16C56.0147 16 56.4616 15.8958 56.8253 15.6875C57.1927 15.4792 57.4692 15.2102 57.6548 14.8807C57.8442 14.5511 57.9389 14.2045 57.9389 13.8409V12.6136C57.8821 12.6818 57.7571 12.7443 57.5639 12.8011C57.3745 12.8542 57.1548 12.9015 56.9048 12.9432C56.6586 12.9811 56.4181 13.0152 56.1832 13.0455C55.9522 13.072 55.7647 13.0947 55.6207 13.1136C55.2723 13.1591 54.9465 13.233 54.6435 13.3352C54.3442 13.4337 54.1018 13.5833 53.9162 13.7841C53.7344 13.9811 53.6435 14.25 53.6435 14.5909C53.6435 15.0568 53.8158 15.4091 54.1605 15.6477C54.509 15.8826 54.9503 16 55.4844 16ZM65.0227 17.1818C64.2955 17.1818 63.6534 16.9981 63.0966 16.6307C62.5398 16.2595 62.1042 15.7367 61.7898 15.0625C61.4754 14.3845 61.3182 13.5833 61.3182 12.6591C61.3182 11.7424 61.4754 10.947 61.7898 10.2727C62.1042 9.59848 62.5417 9.07765 63.1023 8.71023C63.6629 8.3428 64.3106 8.15909 65.0455 8.15909C65.6136 8.15909 66.0625 8.25379 66.392 8.44318C66.7254 8.62879 66.9792 8.84091 67.1534 9.07955C67.3314 9.31439 67.4697 9.50758 67.5682 9.65909H67.6818V5.36364H69.0227V17H67.7273V15.6591H67.5682C67.4697 15.8182 67.3295 16.0189 67.1477 16.2614C66.9659 16.5 66.7064 16.714 66.3693 16.9034C66.0322 17.089 65.5833 17.1818 65.0227 17.1818ZM65.2045 15.9773C65.7424 15.9773 66.197 15.8371 66.5682 15.5568C66.9394 15.2727 67.2216 14.8807 67.4148 14.3807C67.608 13.8769 67.7045 13.2955 67.7045 12.6364C67.7045 11.9848 67.6098 11.4148 67.4205 10.9261C67.2311 10.4337 66.9508 10.0511 66.5795 9.77841C66.2083 9.50189 65.75 9.36364 65.2045 9.36364C64.6364 9.36364 64.1629 9.50947 63.7841 9.80114C63.4091 10.089 63.1269 10.4811 62.9375 10.9773C62.7519 11.4697 62.6591 12.0227 62.6591 12.6364C62.6591 13.2576 62.7538 13.822 62.9432 14.3295C63.1364 14.8333 63.4205 15.2348 63.7955 15.5341C64.1742 15.8295 64.6439 15.9773 65.2045 15.9773ZM71.6648 17V8.27273H72.9602V9.59091H73.0511C73.2102 9.15909 73.4981 8.80871 73.9148 8.53977C74.3314 8.27083 74.8011 8.13636 75.3239 8.13636C75.4223 8.13636 75.5455 8.13826 75.6932 8.14205C75.8409 8.14583 75.9527 8.15152 76.0284 8.15909V9.52273C75.983 9.51136 75.8788 9.49432 75.7159 9.47159C75.5568 9.44508 75.3883 9.43182 75.2102 9.43182C74.786 9.43182 74.4072 9.52083 74.0739 9.69886C73.7443 9.87311 73.483 10.1155 73.2898 10.4261C73.1004 10.733 73.0057 11.0833 73.0057 11.4773V17H71.6648ZM77.6179 17V8.27273H78.9588V17H77.6179ZM78.2997 6.81818C78.0384 6.81818 77.813 6.72917 77.6236 6.55114C77.438 6.37311 77.3452 6.15909 77.3452 5.90909C77.3452 5.65909 77.438 5.44508 77.6236 5.26705C77.813 5.08902 78.0384 5 78.2997 5C78.5611 5 78.7846 5.08902 78.9702 5.26705C79.1596 5.44508 79.2543 5.65909 79.2543 5.90909C79.2543 6.15909 79.1596 6.37311 78.9702 6.55114C78.7846 6.72917 78.5611 6.81818 78.2997 6.81818ZM82.7557 11.75V17H81.4148V8.27273H82.7102V9.63636H82.8239C83.0284 9.19318 83.339 8.83712 83.7557 8.56818C84.1723 8.29545 84.7102 8.15909 85.3693 8.15909C85.9602 8.15909 86.4773 8.2803 86.9205 8.52273C87.3636 8.76136 87.7083 9.125 87.9545 9.61364C88.2008 10.0985 88.3239 10.7121 88.3239 11.4545V17H86.983V11.5455C86.983 10.8598 86.8049 10.3258 86.4489 9.94318C86.0928 9.55682 85.6042 9.36364 84.983 9.36364C84.5549 9.36364 84.1723 9.45644 83.8352 9.64205C83.5019 9.82765 83.2386 10.0985 83.0455 10.4545C82.8523 10.8106 82.7557 11.2424 82.7557 11.75ZM92.1151 11.75V17H90.7741V5.36364H92.1151V9.63636H92.2287C92.4332 9.18561 92.7401 8.82765 93.1491 8.5625C93.562 8.29356 94.1113 8.15909 94.7969 8.15909C95.3916 8.15909 95.9124 8.27841 96.3594 8.51705C96.8063 8.75189 97.1529 9.11364 97.3991 9.60227C97.6491 10.0871 97.7741 10.7045 97.7741 11.4545V17H96.4332V11.5455C96.4332 10.8523 96.2533 10.3163 95.8935 9.9375C95.5374 9.55492 95.0431 9.36364 94.4105 9.36364C93.9711 9.36364 93.5772 9.45644 93.2287 9.64205C92.884 9.82765 92.6113 10.0985 92.4105 10.4545C92.2135 10.8106 92.1151 11.2424 92.1151 11.75ZM103.773 17.1818C102.985 17.1818 102.294 16.9943 101.699 16.6193C101.108 16.2443 100.646 15.7197 100.312 15.0455C99.983 14.3712 99.8182 13.5833 99.8182 12.6818C99.8182 11.7727 99.983 10.9792 100.312 10.3011C100.646 9.62311 101.108 9.09659 101.699 8.72159C102.294 8.34659 102.985 8.15909 103.773 8.15909C104.561 8.15909 105.25 8.34659 105.841 8.72159C106.436 9.09659 106.898 9.62311 107.227 10.3011C107.561 10.9792 107.727 11.7727 107.727 12.6818C107.727 13.5833 107.561 14.3712 107.227 15.0455C106.898 15.7197 106.436 16.2443 105.841 16.6193C105.25 16.9943 104.561 17.1818 103.773 17.1818ZM103.773 15.9773C104.371 15.9773 104.864 15.8239 105.25 15.517C105.636 15.2102 105.922 14.8068 106.108 14.3068C106.294 13.8068 106.386 13.2652 106.386 12.6818C106.386 12.0985 106.294 11.5549 106.108 11.0511C105.922 10.5473 105.636 10.1402 105.25 9.82955C104.864 9.51894 104.371 9.36364 103.773 9.36364C103.174 9.36364 102.682 9.51894 102.295 9.82955C101.909 10.1402 101.623 10.5473 101.438 11.0511C101.252 11.5549 101.159 12.0985 101.159 12.6818C101.159 13.2652 101.252 13.8068 101.438 14.3068C101.623 14.8068 101.909 15.2102 102.295 15.517C102.682 15.8239 103.174 15.9773 103.773 15.9773Z" fill="#D6D6D6"/>
</svg>
