<svg width="141" height="27" viewBox="0 0 141 27" fill="none" xmlns="http://www.w3.org/2000/svg">
<path d="M140.5 26.5H0.5L21.7295 0.5H140.5V26.5Z" fill="#64A94C"/>
<path d="M64.7727 10.2727C64.7045 9.69697 64.428 9.25 63.9432 8.93182C63.4583 8.61364 62.8636 8.45455 62.1591 8.45455C61.6439 8.45455 61.1932 8.53788 60.8068 8.70455C60.4242 8.87121 60.125 9.10038 59.9091 9.39205C59.697 9.68371 59.5909 10.0152 59.5909 10.3864C59.5909 10.697 59.6648 10.964 59.8125 11.1875C59.964 11.4072 60.1572 11.5909 60.392 11.7386C60.6269 11.8826 60.8731 12.0019 61.1307 12.0966C61.3883 12.1875 61.625 12.2614 61.8409 12.3182L63.0227 12.6364C63.3258 12.7159 63.6629 12.8258 64.0341 12.9659C64.4091 13.1061 64.767 13.2973 65.108 13.5398C65.4527 13.7784 65.7367 14.0852 65.9602 14.4602C66.1837 14.8352 66.2955 15.2955 66.2955 15.8409C66.2955 16.4697 66.1307 17.0379 65.8011 17.5455C65.4754 18.053 64.9981 18.4564 64.3693 18.7557C63.7443 19.0549 62.9848 19.2045 62.0909 19.2045C61.2576 19.2045 60.536 19.0701 59.9261 18.8011C59.3201 18.5322 58.8428 18.1572 58.4943 17.6761C58.1496 17.1951 57.9545 16.6364 57.9091 16H59.3636C59.4015 16.4394 59.5492 16.803 59.8068 17.0909C60.0682 17.375 60.3977 17.5871 60.7955 17.7273C61.197 17.8636 61.6288 17.9318 62.0909 17.9318C62.6288 17.9318 63.1117 17.8447 63.5398 17.6705C63.9678 17.4924 64.3068 17.2462 64.5568 16.9318C64.8068 16.6136 64.9318 16.2424 64.9318 15.8182C64.9318 15.4318 64.8239 15.1174 64.608 14.875C64.392 14.6326 64.108 14.4356 63.7557 14.2841C63.4034 14.1326 63.0227 14 62.6136 13.8864L61.1818 13.4773C60.2727 13.2159 59.553 12.8428 59.0227 12.358C58.4924 11.8731 58.2273 11.2386 58.2273 10.4545C58.2273 9.80303 58.4034 9.23485 58.7557 8.75C59.1117 8.26136 59.589 7.88258 60.1875 7.61364C60.7898 7.34091 61.4621 7.20455 62.2045 7.20455C62.9545 7.20455 63.6212 7.33901 64.2045 7.60795C64.7879 7.87311 65.25 8.23674 65.5909 8.69886C65.9356 9.16098 66.1174 9.68561 66.1364 10.2727H64.7727ZM72.0895 19.1818C71.2486 19.1818 70.5232 18.9962 69.9134 18.625C69.3073 18.25 68.8395 17.7273 68.5099 17.0568C68.1842 16.3826 68.0213 15.5985 68.0213 14.7045C68.0213 13.8106 68.1842 13.0227 68.5099 12.3409C68.8395 11.6553 69.2978 11.1212 69.8849 10.7386C70.4759 10.3523 71.1652 10.1591 71.9531 10.1591C72.4077 10.1591 72.8565 10.2348 73.2997 10.3864C73.7429 10.5379 74.1463 10.7841 74.5099 11.125C74.8736 11.4621 75.1634 11.9091 75.3793 12.4659C75.5952 13.0227 75.7031 13.7083 75.7031 14.5227V15.0909H68.9759V13.9318H74.3395C74.3395 13.4394 74.241 13 74.044 12.6136C73.8509 12.2273 73.5743 11.9223 73.2145 11.6989C72.8584 11.4754 72.438 11.3636 71.9531 11.3636C71.419 11.3636 70.9569 11.4962 70.5668 11.7614C70.1804 12.0227 69.883 12.3636 69.6747 12.7841C69.4664 13.2045 69.3622 13.6553 69.3622 14.1364V14.9091C69.3622 15.5682 69.4759 16.1269 69.7031 16.5852C69.9342 17.0398 70.2543 17.3864 70.6634 17.625C71.0724 17.8598 71.5478 17.9773 72.0895 17.9773C72.4418 17.9773 72.7599 17.928 73.044 17.8295C73.3319 17.7273 73.58 17.5758 73.7884 17.375C73.9967 17.1705 74.1577 16.9167 74.2713 16.6136L75.5668 16.9773C75.4304 17.4167 75.2012 17.803 74.8793 18.1364C74.5573 18.4659 74.1596 18.7235 73.6861 18.9091C73.2126 19.0909 72.6804 19.1818 72.0895 19.1818ZM77.7429 19V10.2727H79.0384V11.5909H79.1293C79.2884 11.1591 79.5762 10.8087 79.9929 10.5398C80.4096 10.2708 80.8793 10.1364 81.402 10.1364C81.5005 10.1364 81.6236 10.1383 81.7713 10.142C81.919 10.1458 82.0308 10.1515 82.1065 10.1591V11.5227C82.0611 11.5114 81.9569 11.4943 81.794 11.4716C81.6349 11.4451 81.4664 11.4318 81.2884 11.4318C80.8641 11.4318 80.4853 11.5208 80.152 11.6989C79.8224 11.8731 79.5611 12.1155 79.3679 12.4261C79.1785 12.733 79.0838 13.0833 79.0838 13.4773V19H77.7429ZM83.696 19V10.2727H85.0369V19H83.696ZM84.3778 8.81818C84.1165 8.81818 83.8911 8.72917 83.7017 8.55114C83.5161 8.37311 83.4233 8.15909 83.4233 7.90909C83.4233 7.65909 83.5161 7.44508 83.7017 7.26705C83.8911 7.08902 84.1165 7 84.3778 7C84.6392 7 84.8627 7.08902 85.0483 7.26705C85.2377 7.44508 85.3324 7.65909 85.3324 7.90909C85.3324 8.15909 85.2377 8.37311 85.0483 8.55114C84.8627 8.72917 84.6392 8.81818 84.3778 8.81818ZM91.152 19.1818C90.3111 19.1818 89.5857 18.9962 88.9759 18.625C88.3698 18.25 87.902 17.7273 87.5724 17.0568C87.2467 16.3826 87.0838 15.5985 87.0838 14.7045C87.0838 13.8106 87.2467 13.0227 87.5724 12.3409C87.902 11.6553 88.3603 11.1212 88.9474 10.7386C89.5384 10.3523 90.2277 10.1591 91.0156 10.1591C91.4702 10.1591 91.919 10.2348 92.3622 10.3864C92.8054 10.5379 93.2088 10.7841 93.5724 11.125C93.9361 11.4621 94.2259 11.9091 94.4418 12.4659C94.6577 13.0227 94.7656 13.7083 94.7656 14.5227V15.0909H88.0384V13.9318H93.402C93.402 13.4394 93.3035 13 93.1065 12.6136C92.9134 12.2273 92.6368 11.9223 92.277 11.6989C91.9209 11.4754 91.5005 11.3636 91.0156 11.3636C90.4815 11.3636 90.0194 11.4962 89.6293 11.7614C89.2429 12.0227 88.9455 12.3636 88.7372 12.7841C88.5289 13.2045 88.4247 13.6553 88.4247 14.1364V14.9091C88.4247 15.5682 88.5384 16.1269 88.7656 16.5852C88.9967 17.0398 89.3168 17.3864 89.7259 17.625C90.1349 17.8598 90.6103 17.9773 91.152 17.9773C91.5043 17.9773 91.8224 17.928 92.1065 17.8295C92.3944 17.7273 92.6425 17.5758 92.8509 17.375C93.0592 17.1705 93.2202 16.9167 93.3338 16.6136L94.6293 16.9773C94.4929 17.4167 94.2637 17.803 93.9418 18.1364C93.6198 18.4659 93.2221 18.7235 92.7486 18.9091C92.2751 19.0909 91.7429 19.1818 91.152 19.1818Z" fill="#D6D6D6"/>
</svg>
