<svg width="141" height="27" viewBox="0 0 141 27" fill="none" xmlns="http://www.w3.org/2000/svg">
<path d="M140.5 26.5H0.5L21.7295 0.5H140.5V26.5Z" fill="#5E9595"/>
<path d="M42.6364 15.3636H44.1818L45.4773 17.0682L45.8182 17.5227L47.75 20.0909H46.2045L44.9318 18.3864L44.6136 17.9545L42.6364 15.3636ZM48.2273 13.1818C48.2273 14.4091 48.0057 15.4697 47.5625 16.3636C47.1193 17.2576 46.5114 17.947 45.7386 18.4318C44.9659 18.9167 44.0833 19.1591 43.0909 19.1591C42.0985 19.1591 41.2159 18.9167 40.4432 18.4318C39.6705 17.947 39.0625 17.2576 38.6193 16.3636C38.1761 15.4697 37.9545 14.4091 37.9545 13.1818C37.9545 11.9545 38.1761 10.8939 38.6193 10C39.0625 9.10606 39.6705 8.41667 40.4432 7.93182C41.2159 7.44697 42.0985 7.20455 43.0909 7.20455C44.0833 7.20455 44.9659 7.44697 45.7386 7.93182C46.5114 8.41667 47.1193 9.10606 47.5625 10C48.0057 10.8939 48.2273 11.9545 48.2273 13.1818ZM46.8636 13.1818C46.8636 12.1742 46.6951 11.3239 46.358 10.6307C46.0246 9.9375 45.572 9.41288 45 9.05682C44.4318 8.70076 43.7955 8.52273 43.0909 8.52273C42.3864 8.52273 41.7481 8.70076 41.1761 9.05682C40.608 9.41288 40.1553 9.9375 39.8182 10.6307C39.4848 11.3239 39.3182 12.1742 39.3182 13.1818C39.3182 14.1894 39.4848 15.0398 39.8182 15.733C40.1553 16.4261 40.608 16.9508 41.1761 17.3068C41.7481 17.6629 42.3864 17.8409 43.0909 17.8409C43.7955 17.8409 44.4318 17.6629 45 17.3068C45.572 16.9508 46.0246 16.4261 46.358 15.733C46.6951 15.0398 46.8636 14.1894 46.8636 13.1818ZM55.9148 15.4318V10.2727H57.2557V19H55.9148V17.5227H55.8239C55.6193 17.9659 55.3011 18.3428 54.8693 18.6534C54.4375 18.9602 53.892 19.1136 53.233 19.1136C52.6875 19.1136 52.2027 18.9943 51.7784 18.7557C51.3542 18.5133 51.0208 18.1496 50.7784 17.6648C50.536 17.1761 50.4148 16.5606 50.4148 15.8182V10.2727H51.7557V15.7273C51.7557 16.3636 51.9337 16.8712 52.2898 17.25C52.6496 17.6288 53.108 17.8182 53.6648 17.8182C53.9981 17.8182 54.3371 17.733 54.6818 17.5625C55.0303 17.392 55.322 17.1307 55.5568 16.7784C55.7955 16.4261 55.9148 15.9773 55.9148 15.4318ZM62.2798 19.2045C61.7268 19.2045 61.2249 19.1004 60.7741 18.892C60.3234 18.6799 59.9654 18.375 59.7003 17.9773C59.4351 17.5758 59.3026 17.0909 59.3026 16.5227C59.3026 16.0227 59.401 15.6174 59.598 15.3068C59.795 14.9924 60.0582 14.7462 60.3878 14.5682C60.7173 14.3902 61.081 14.2576 61.4787 14.1705C61.8802 14.0795 62.2836 14.0076 62.6889 13.9545C63.2192 13.8864 63.6491 13.8352 63.9787 13.8011C64.312 13.7633 64.5545 13.7008 64.706 13.6136C64.8613 13.5265 64.9389 13.375 64.9389 13.1591V13.1136C64.9389 12.553 64.7855 12.1174 64.4787 11.8068C64.1757 11.4962 63.7154 11.3409 63.098 11.3409C62.4579 11.3409 61.956 11.4811 61.5923 11.7614C61.2287 12.0417 60.973 12.3409 60.8253 12.6591L59.5526 12.2045C59.7798 11.6742 60.0829 11.2614 60.4616 10.9659C60.8442 10.6667 61.2609 10.4583 61.7116 10.3409C62.1662 10.2197 62.6132 10.1591 63.0526 10.1591C63.3329 10.1591 63.6548 10.1932 64.0185 10.2614C64.3859 10.3258 64.7401 10.4602 65.081 10.6648C65.4257 10.8693 65.7116 11.178 65.9389 11.5909C66.1662 12.0038 66.2798 12.5568 66.2798 13.25V19H64.9389V17.8182H64.8707C64.7798 18.0076 64.6283 18.2102 64.4162 18.4261C64.2041 18.642 63.9219 18.8258 63.5696 18.9773C63.2173 19.1288 62.7874 19.2045 62.2798 19.2045ZM62.4844 18C63.0147 18 63.4616 17.8958 63.8253 17.6875C64.1927 17.4792 64.4692 17.2102 64.6548 16.8807C64.8442 16.5511 64.9389 16.2045 64.9389 15.8409V14.6136C64.8821 14.6818 64.7571 14.7443 64.5639 14.8011C64.3745 14.8542 64.1548 14.9015 63.9048 14.9432C63.6586 14.9811 63.4181 15.0152 63.1832 15.0455C62.9522 15.072 62.7647 15.0947 62.6207 15.1136C62.2723 15.1591 61.9465 15.233 61.6435 15.3352C61.3442 15.4337 61.1018 15.5833 60.9162 15.7841C60.7344 15.9811 60.6435 16.25 60.6435 16.5909C60.6435 17.0568 60.8158 17.4091 61.1605 17.6477C61.509 17.8826 61.9503 18 62.4844 18ZM72.0227 19.1818C71.2955 19.1818 70.6534 18.9981 70.0966 18.6307C69.5398 18.2595 69.1042 17.7367 68.7898 17.0625C68.4754 16.3845 68.3182 15.5833 68.3182 14.6591C68.3182 13.7424 68.4754 12.947 68.7898 12.2727C69.1042 11.5985 69.5417 11.0777 70.1023 10.7102C70.6629 10.3428 71.3106 10.1591 72.0455 10.1591C72.6136 10.1591 73.0625 10.2538 73.392 10.4432C73.7254 10.6288 73.9792 10.8409 74.1534 11.0795C74.3314 11.3144 74.4697 11.5076 74.5682 11.6591H74.6818V7.36364H76.0227V19H74.7273V17.6591H74.5682C74.4697 17.8182 74.3295 18.0189 74.1477 18.2614C73.9659 18.5 73.7064 18.714 73.3693 18.9034C73.0322 19.089 72.5833 19.1818 72.0227 19.1818ZM72.2045 17.9773C72.7424 17.9773 73.197 17.8371 73.5682 17.5568C73.9394 17.2727 74.2216 16.8807 74.4148 16.3807C74.608 15.8769 74.7045 15.2955 74.7045 14.6364C74.7045 13.9848 74.6098 13.4148 74.4205 12.9261C74.2311 12.4337 73.9508 12.0511 73.5795 11.7784C73.2083 11.5019 72.75 11.3636 72.2045 11.3636C71.6364 11.3636 71.1629 11.5095 70.7841 11.8011C70.4091 12.089 70.1269 12.4811 69.9375 12.9773C69.7519 13.4697 69.6591 14.0227 69.6591 14.6364C69.6591 15.2576 69.7538 15.822 69.9432 16.3295C70.1364 16.8333 70.4205 17.2348 70.7955 17.5341C71.1742 17.8295 71.6439 17.9773 72.2045 17.9773ZM78.6648 19V10.2727H79.9602V11.5909H80.0511C80.2102 11.1591 80.4981 10.8087 80.9148 10.5398C81.3314 10.2708 81.8011 10.1364 82.3239 10.1364C82.4223 10.1364 82.5455 10.1383 82.6932 10.142C82.8409 10.1458 82.9527 10.1515 83.0284 10.1591V11.5227C82.983 11.5114 82.8788 11.4943 82.7159 11.4716C82.5568 11.4451 82.3883 11.4318 82.2102 11.4318C81.786 11.4318 81.4072 11.5208 81.0739 11.6989C80.7443 11.8731 80.483 12.1155 80.2898 12.4261C80.1004 12.733 80.0057 13.0833 80.0057 13.4773V19H78.6648ZM84.6179 19V10.2727H85.9588V19H84.6179ZM85.2997 8.81818C85.0384 8.81818 84.813 8.72917 84.6236 8.55114C84.438 8.37311 84.3452 8.15909 84.3452 7.90909C84.3452 7.65909 84.438 7.44508 84.6236 7.26705C84.813 7.08902 85.0384 7 85.2997 7C85.5611 7 85.7846 7.08902 85.9702 7.26705C86.1596 7.44508 86.2543 7.65909 86.2543 7.90909C86.2543 8.15909 86.1596 8.37311 85.9702 8.55114C85.7846 8.72917 85.5611 8.81818 85.2997 8.81818ZM89.7557 13.75V19H88.4148V10.2727H89.7102V11.6364H89.8239C90.0284 11.1932 90.339 10.8371 90.7557 10.5682C91.1723 10.2955 91.7102 10.1591 92.3693 10.1591C92.9602 10.1591 93.4773 10.2803 93.9205 10.5227C94.3636 10.7614 94.7083 11.125 94.9545 11.6136C95.2008 12.0985 95.3239 12.7121 95.3239 13.4545V19H93.983V13.5455C93.983 12.8598 93.8049 12.3258 93.4489 11.9432C93.0928 11.5568 92.6042 11.3636 91.983 11.3636C91.5549 11.3636 91.1723 11.4564 90.8352 11.642C90.5019 11.8277 90.2386 12.0985 90.0455 12.4545C89.8523 12.8106 89.7557 13.2424 89.7557 13.75ZM99.1151 13.75V19H97.7741V7.36364H99.1151V11.6364H99.2287C99.4332 11.1856 99.7401 10.8277 100.149 10.5625C100.562 10.2936 101.111 10.1591 101.797 10.1591C102.392 10.1591 102.912 10.2784 103.359 10.517C103.806 10.7519 104.153 11.1136 104.399 11.6023C104.649 12.0871 104.774 12.7045 104.774 13.4545V19H103.433V13.5455C103.433 12.8523 103.253 12.3163 102.893 11.9375C102.537 11.5549 102.043 11.3636 101.411 11.3636C100.971 11.3636 100.577 11.4564 100.229 11.642C99.884 11.8277 99.6113 12.0985 99.4105 12.4545C99.2135 12.8106 99.1151 13.2424 99.1151 13.75ZM110.773 19.1818C109.985 19.1818 109.294 18.9943 108.699 18.6193C108.108 18.2443 107.646 17.7197 107.312 17.0455C106.983 16.3712 106.818 15.5833 106.818 14.6818C106.818 13.7727 106.983 12.9792 107.312 12.3011C107.646 11.6231 108.108 11.0966 108.699 10.7216C109.294 10.3466 109.985 10.1591 110.773 10.1591C111.561 10.1591 112.25 10.3466 112.841 10.7216C113.436 11.0966 113.898 11.6231 114.227 12.3011C114.561 12.9792 114.727 13.7727 114.727 14.6818C114.727 15.5833 114.561 16.3712 114.227 17.0455C113.898 17.7197 113.436 18.2443 112.841 18.6193C112.25 18.9943 111.561 19.1818 110.773 19.1818ZM110.773 17.9773C111.371 17.9773 111.864 17.8239 112.25 17.517C112.636 17.2102 112.922 16.8068 113.108 16.3068C113.294 15.8068 113.386 15.2652 113.386 14.6818C113.386 14.0985 113.294 13.5549 113.108 13.0511C112.922 12.5473 112.636 12.1402 112.25 11.8295C111.864 11.5189 111.371 11.3636 110.773 11.3636C110.174 11.3636 109.682 11.5189 109.295 11.8295C108.909 12.1402 108.623 12.5473 108.438 13.0511C108.252 13.5549 108.159 14.0985 108.159 14.6818C108.159 15.2652 108.252 15.8068 108.438 16.3068C108.623 16.8068 108.909 17.2102 109.295 17.517C109.682 17.8239 110.174 17.9773 110.773 17.9773Z" fill="#D6D6D6"/>
</svg>
