<svg width="140" height="26" viewBox="0 0 140 26" fill="none" xmlns="http://www.w3.org/2000/svg">
<path d="M140 26H0L21.2295 0H140V26Z" fill="#955E73"/>
<path d="M32.4091 18V6.36364H36.3409C37.2538 6.36364 38 6.52841 38.5795 6.85795C39.1629 7.18371 39.5947 7.625 39.875 8.18182C40.1553 8.73864 40.2955 9.35985 40.2955 10.0455C40.2955 10.7311 40.1553 11.3542 39.875 11.9148C39.5985 12.4754 39.1705 12.9223 38.5909 13.2557C38.0114 13.5852 37.2689 13.75 36.3636 13.75H33.5455V12.5H36.3182C36.9432 12.5 37.4451 12.392 37.8239 12.1761C38.2027 11.9602 38.4773 11.6686 38.6477 11.3011C38.822 10.9299 38.9091 10.5114 38.9091 10.0455C38.9091 9.57955 38.822 9.16288 38.6477 8.79545C38.4773 8.42803 38.2008 8.14015 37.8182 7.93182C37.4356 7.7197 36.928 7.61364 36.2955 7.61364H33.8182V18H32.4091ZM45.9489 18.1818C45.108 18.1818 44.3826 17.9962 43.7727 17.625C43.1667 17.25 42.6989 16.7273 42.3693 16.0568C42.0436 15.3826 41.8807 14.5985 41.8807 13.7045C41.8807 12.8106 42.0436 12.0227 42.3693 11.3409C42.6989 10.6553 43.1572 10.1212 43.7443 9.73864C44.3352 9.35227 45.0246 9.15909 45.8125 9.15909C46.267 9.15909 46.7159 9.23485 47.1591 9.38636C47.6023 9.53788 48.0057 9.78409 48.3693 10.125C48.733 10.4621 49.0227 10.9091 49.2386 11.4659C49.4545 12.0227 49.5625 12.7083 49.5625 13.5227V14.0909H42.8352V12.9318H48.1989C48.1989 12.4394 48.1004 12 47.9034 11.6136C47.7102 11.2273 47.4337 10.9223 47.0739 10.6989C46.7178 10.4754 46.2973 10.3636 45.8125 10.3636C45.2784 10.3636 44.8163 10.4962 44.4261 10.7614C44.0398 11.0227 43.7424 11.3636 43.5341 11.7841C43.3258 12.2045 43.2216 12.6553 43.2216 13.1364V13.9091C43.2216 14.5682 43.3352 15.1269 43.5625 15.5852C43.7936 16.0398 44.1136 16.3864 44.5227 16.625C44.9318 16.8598 45.4072 16.9773 45.9489 16.9773C46.3011 16.9773 46.6193 16.928 46.9034 16.8295C47.1913 16.7273 47.4394 16.5758 47.6477 16.375C47.8561 16.1705 48.017 15.9167 48.1307 15.6136L49.4261 15.9773C49.2898 16.4167 49.0606 16.803 48.7386 17.1364C48.4167 17.4659 48.0189 17.7235 47.5455 17.9091C47.072 18.0909 46.5398 18.1818 45.9489 18.1818ZM51.6023 18V9.27273H52.8977V10.5909H52.9886C53.1477 10.1591 53.4356 9.80871 53.8523 9.53977C54.2689 9.27083 54.7386 9.13636 55.2614 9.13636C55.3598 9.13636 55.483 9.13826 55.6307 9.14205C55.7784 9.14583 55.8902 9.15152 55.9659 9.15909V10.5227C55.9205 10.5114 55.8163 10.4943 55.6534 10.4716C55.4943 10.4451 55.3258 10.4318 55.1477 10.4318C54.7235 10.4318 54.3447 10.5208 54.0114 10.6989C53.6818 10.8731 53.4205 11.1155 53.2273 11.4261C53.0379 11.733 52.9432 12.0833 52.9432 12.4773V18H51.6023ZM63.7372 11.2273L62.5327 11.5682C62.4569 11.3674 62.3452 11.1723 62.1974 10.983C62.0535 10.7898 61.8565 10.6307 61.6065 10.5057C61.3565 10.3807 61.0365 10.3182 60.6463 10.3182C60.1122 10.3182 59.6671 10.4413 59.3111 10.6875C58.9588 10.9299 58.7827 11.2386 58.7827 11.6136C58.7827 11.947 58.9039 12.2102 59.1463 12.4034C59.3887 12.5966 59.7675 12.7576 60.2827 12.8864L61.5781 13.2045C62.3584 13.3939 62.9399 13.6837 63.3224 14.0739C63.705 14.4602 63.8963 14.9583 63.8963 15.5682C63.8963 16.0682 63.7524 16.5152 63.4645 16.9091C63.1804 17.303 62.7827 17.6136 62.2713 17.8409C61.7599 18.0682 61.1652 18.1818 60.4872 18.1818C59.5971 18.1818 58.8603 17.9886 58.277 17.6023C57.6937 17.2159 57.3243 16.6515 57.169 15.9091L58.4418 15.5909C58.563 16.0606 58.7921 16.4129 59.1293 16.6477C59.4702 16.8826 59.9152 17 60.4645 17C61.0895 17 61.5857 16.8674 61.9531 16.6023C62.3243 16.3333 62.5099 16.0114 62.5099 15.6364C62.5099 15.3333 62.4039 15.0795 62.1918 14.875C61.9796 14.6667 61.6539 14.5114 61.2145 14.4091L59.7599 14.0682C58.9607 13.8788 58.3736 13.5852 57.9986 13.1875C57.6274 12.786 57.4418 12.2841 57.4418 11.6818C57.4418 11.1894 57.58 10.7538 57.8565 10.375C58.1368 9.99621 58.5175 9.69886 58.9986 9.48295C59.4834 9.26705 60.0327 9.15909 60.6463 9.15909C61.5099 9.15909 62.188 9.34848 62.6804 9.72727C63.1766 10.1061 63.5289 10.6061 63.7372 11.2273ZM69.4602 18.1818C68.6723 18.1818 67.9811 17.9943 67.3864 17.6193C66.7955 17.2443 66.3333 16.7197 66 16.0455C65.6705 15.3712 65.5057 14.5833 65.5057 13.6818C65.5057 12.7727 65.6705 11.9792 66 11.3011C66.3333 10.6231 66.7955 10.0966 67.3864 9.72159C67.9811 9.34659 68.6723 9.15909 69.4602 9.15909C70.2481 9.15909 70.9375 9.34659 71.5284 9.72159C72.1231 10.0966 72.5852 10.6231 72.9148 11.3011C73.2481 11.9792 73.4148 12.7727 73.4148 13.6818C73.4148 14.5833 73.2481 15.3712 72.9148 16.0455C72.5852 16.7197 72.1231 17.2443 71.5284 17.6193C70.9375 17.9943 70.2481 18.1818 69.4602 18.1818ZM69.4602 16.9773C70.0587 16.9773 70.5511 16.8239 70.9375 16.517C71.3239 16.2102 71.6098 15.8068 71.7955 15.3068C71.9811 14.8068 72.0739 14.2652 72.0739 13.6818C72.0739 13.0985 71.9811 12.5549 71.7955 12.0511C71.6098 11.5473 71.3239 11.1402 70.9375 10.8295C70.5511 10.5189 70.0587 10.3636 69.4602 10.3636C68.8617 10.3636 68.3693 10.5189 67.983 10.8295C67.5966 11.1402 67.3106 11.5473 67.125 12.0511C66.9394 12.5549 66.8466 13.0985 66.8466 13.6818C66.8466 14.2652 66.9394 14.8068 67.125 15.3068C67.3106 15.8068 67.5966 16.2102 67.983 16.517C68.3693 16.8239 68.8617 16.9773 69.4602 16.9773ZM76.8026 12.75V18H75.4616V9.27273H76.7571V10.6364H76.8707C77.0753 10.1932 77.3859 9.83712 77.8026 9.56818C78.2192 9.29545 78.7571 9.15909 79.4162 9.15909C80.0071 9.15909 80.5241 9.2803 80.9673 9.52273C81.4105 9.76136 81.7552 10.125 82.0014 10.6136C82.2476 11.0985 82.3707 11.7121 82.3707 12.4545V18H81.0298V12.5455C81.0298 11.8598 80.8518 11.3258 80.4957 10.9432C80.1397 10.5568 79.651 10.3636 79.0298 10.3636C78.6018 10.3636 78.2192 10.4564 77.8821 10.642C77.5488 10.8277 77.2855 11.0985 77.0923 11.4545C76.8991 11.8106 76.8026 12.2424 76.8026 12.75ZM87.3892 18.2045C86.8362 18.2045 86.3343 18.1004 85.8835 17.892C85.4328 17.6799 85.0748 17.375 84.8097 16.9773C84.5445 16.5758 84.4119 16.0909 84.4119 15.5227C84.4119 15.0227 84.5104 14.6174 84.7074 14.3068C84.9044 13.9924 85.1676 13.7462 85.4972 13.5682C85.8267 13.3902 86.1903 13.2576 86.5881 13.1705C86.9896 13.0795 87.393 13.0076 87.7983 12.9545C88.3286 12.8864 88.7585 12.8352 89.0881 12.8011C89.4214 12.7633 89.6638 12.7008 89.8153 12.6136C89.9706 12.5265 90.0483 12.375 90.0483 12.1591V12.1136C90.0483 11.553 89.8949 11.1174 89.5881 10.8068C89.285 10.4962 88.8248 10.3409 88.2074 10.3409C87.5672 10.3409 87.0653 10.4811 86.7017 10.7614C86.3381 11.0417 86.0824 11.3409 85.9347 11.6591L84.6619 11.2045C84.8892 10.6742 85.1922 10.2614 85.571 9.96591C85.9536 9.66667 86.3703 9.45833 86.821 9.34091C87.2756 9.2197 87.7225 9.15909 88.1619 9.15909C88.4422 9.15909 88.7642 9.19318 89.1278 9.26136C89.4953 9.32576 89.8494 9.46023 90.1903 9.66477C90.535 9.86932 90.821 10.178 91.0483 10.5909C91.2756 11.0038 91.3892 11.5568 91.3892 12.25V18H90.0483V16.8182H89.9801C89.8892 17.0076 89.7377 17.2102 89.5256 17.4261C89.3134 17.642 89.0313 17.8258 88.679 17.9773C88.3267 18.1288 87.8968 18.2045 87.3892 18.2045ZM87.5938 17C88.1241 17 88.571 16.8958 88.9347 16.6875C89.3021 16.4792 89.5786 16.2102 89.7642 15.8807C89.9536 15.5511 90.0483 15.2045 90.0483 14.8409V13.6136C89.9915 13.6818 89.8665 13.7443 89.6733 13.8011C89.4839 13.8542 89.2642 13.9015 89.0142 13.9432C88.768 13.9811 88.5275 14.0152 88.2926 14.0455C88.0616 14.072 87.8741 14.0947 87.7301 14.1136C87.3816 14.1591 87.0559 14.233 86.7528 14.3352C86.4536 14.4337 86.2112 14.5833 86.0256 14.7841C85.8438 14.9811 85.7528 15.25 85.7528 15.5909C85.7528 16.0568 85.9252 16.4091 86.2699 16.6477C86.6184 16.8826 87.0597 17 87.5938 17ZM97.3594 21.4545C96.7116 21.4545 96.1548 21.3712 95.6889 21.2045C95.223 21.0417 94.8348 20.8258 94.5241 20.5568C94.2173 20.2917 93.973 20.0076 93.7912 19.7045L94.8594 18.9545C94.9806 19.1136 95.134 19.2955 95.3196 19.5C95.5052 19.7083 95.759 19.8883 96.081 20.0398C96.4067 20.1951 96.8329 20.2727 97.3594 20.2727C98.0639 20.2727 98.6454 20.1023 99.1037 19.7614C99.562 19.4205 99.7912 18.8864 99.7912 18.1591V16.3864H99.6776C99.5791 16.5455 99.4389 16.7424 99.2571 16.9773C99.0791 17.2083 98.8215 17.4148 98.4844 17.5966C98.151 17.7746 97.7003 17.8636 97.1321 17.8636C96.4276 17.8636 95.795 17.697 95.2344 17.3636C94.6776 17.0303 94.2363 16.5455 93.9105 15.9091C93.5885 15.2727 93.4276 14.5 93.4276 13.5909C93.4276 12.697 93.5848 11.9186 93.8991 11.2557C94.2135 10.589 94.651 10.0739 95.2116 9.71023C95.7723 9.3428 96.42 9.15909 97.1548 9.15909C97.723 9.15909 98.1738 9.25379 98.5071 9.44318C98.8442 9.62879 99.1018 9.84091 99.2798 10.0795C99.4616 10.3144 99.6018 10.5076 99.7003 10.6591H99.8366V9.27273H101.132V18.25C101.132 19 100.962 19.6098 100.621 20.0795C100.284 20.553 99.8291 20.8996 99.2571 21.1193C98.6889 21.3428 98.0563 21.4545 97.3594 21.4545ZM97.3139 16.6591C97.8518 16.6591 98.3063 16.536 98.6776 16.2898C99.0488 16.0436 99.331 15.6894 99.5241 15.2273C99.7173 14.7652 99.8139 14.2121 99.8139 13.5682C99.8139 12.9394 99.7192 12.3845 99.5298 11.9034C99.3404 11.4223 99.0601 11.0455 98.6889 10.7727C98.3177 10.5 97.8594 10.3636 97.3139 10.3636C96.7457 10.3636 96.2723 10.5076 95.8935 10.7955C95.5185 11.0833 95.2363 11.4697 95.0469 11.9545C94.8613 12.4394 94.7685 12.9773 94.7685 13.5682C94.7685 14.1742 94.8632 14.7102 95.0526 15.1761C95.2457 15.6383 95.5298 16.0019 95.9048 16.267C96.2836 16.5284 96.7533 16.6591 97.3139 16.6591ZM107.246 18.1818C106.405 18.1818 105.679 17.9962 105.07 17.625C104.464 17.25 103.996 16.7273 103.666 16.0568C103.34 15.3826 103.178 14.5985 103.178 13.7045C103.178 12.8106 103.34 12.0227 103.666 11.3409C103.996 10.6553 104.454 10.1212 105.041 9.73864C105.632 9.35227 106.321 9.15909 107.109 9.15909C107.564 9.15909 108.013 9.23485 108.456 9.38636C108.899 9.53788 109.303 9.78409 109.666 10.125C110.03 10.4621 110.32 10.9091 110.536 11.4659C110.751 12.0227 110.859 12.7083 110.859 13.5227V14.0909H104.132V12.9318H109.496C109.496 12.4394 109.397 12 109.2 11.6136C109.007 11.2273 108.731 10.9223 108.371 10.6989C108.015 10.4754 107.594 10.3636 107.109 10.3636C106.575 10.3636 106.113 10.4962 105.723 10.7614C105.337 11.0227 105.039 11.3636 104.831 11.7841C104.623 12.2045 104.518 12.6553 104.518 13.1364V13.9091C104.518 14.5682 104.632 15.1269 104.859 15.5852C105.09 16.0398 105.411 16.3864 105.82 16.625C106.229 16.8598 106.704 16.9773 107.246 16.9773C107.598 16.9773 107.916 16.928 108.2 16.8295C108.488 16.7273 108.736 16.5758 108.945 16.375C109.153 16.1705 109.314 15.9167 109.428 15.6136L110.723 15.9773C110.587 16.4167 110.357 16.803 110.036 17.1364C109.714 17.4659 109.316 17.7235 108.842 17.9091C108.369 18.0909 107.837 18.1818 107.246 18.1818ZM112.899 18V9.27273H114.195V10.6364H114.308C114.49 10.1705 114.784 9.80871 115.189 9.55114C115.594 9.28977 116.081 9.15909 116.649 9.15909C117.225 9.15909 117.704 9.28977 118.087 9.55114C118.473 9.80871 118.774 10.1705 118.99 10.6364H119.081C119.304 10.1856 119.64 9.82765 120.087 9.5625C120.534 9.29356 121.07 9.15909 121.695 9.15909C122.475 9.15909 123.113 9.40341 123.609 9.89205C124.106 10.3769 124.354 11.1326 124.354 12.1591V18H123.013V12.1591C123.013 11.5152 122.837 11.0549 122.484 10.7784C122.132 10.5019 121.717 10.3636 121.24 10.3636C120.626 10.3636 120.151 10.5492 119.814 10.9205C119.477 11.2879 119.308 11.7538 119.308 12.3182V18H117.945V12.0227C117.945 11.5265 117.784 11.1269 117.462 10.8239C117.14 10.517 116.725 10.3636 116.217 10.3636C115.869 10.3636 115.543 10.4564 115.24 10.642C114.941 10.8277 114.698 11.0852 114.513 11.4148C114.331 11.7405 114.24 12.1174 114.24 12.5455V18H112.899Z" fill="#D6D6D6"/>
</svg>
